<svg width="48" height="48" viewBox="0 0 48 48" fill="none" xmlns="http://www.w3.org/2000/svg">
<g clip-path="url(#clip0_32_0)">
<rect width="48" height="48" fill="white"/>
<path d="M48 43.95V48H0V43.5C0 43.5 6.5 39 9.5 39C12.5 39 19.7421 43.95 24.5 43.95C32.2421 43.95 35 39 38 39C41 39 44.8 43.8 48 43.95Z" fill="#152C5B"/>
<path d="M20 27.2768L18 24.7768L16 22.2768" stroke="#152C5B" stroke-width="3" stroke-linecap="round"/>
<path d="M23.1135 16L19.5568 19.1384L16 22.2768" stroke="#152C5B" stroke-width="3" stroke-linecap="round"/>
<path d="M20.2744 25.0491C21.5419 24.0365 23.3848 24.2151 24.4344 25.4521L27.5392 29.1116C28.6112 30.375 28.456 32.2681 27.1926 33.34L19.9548 39.4809C18.7575 40.4968 16.9985 40.3766 16.3471 38.9479C15.8012 37.7507 15.1875 36.5167 12.4278 34.8408C12.2005 34.7028 11.9317 34.6433 11.6668 34.6671L9.58404 34.8544C9.07714 34.9 8.79399 34.2836 9.15879 33.9287L20.2744 25.0491Z" fill="#152C5B"/>
<circle cx="29.5" cy="24.5" r="3.5" fill="#39DC2B"/>
</g>
<defs>
<clipPath id="clip0_32_0">
<rect width="48" height="48" fill="white"/>
</clipPath>
</defs>
</svg>
