<svg width="48" height="48" viewBox="0 0 48 48" fill="none" xmlns="http://www.w3.org/2000/svg">
<g clip-path="url(#clip0_10_19)">
<rect width="48" height="48" fill="white"/>
<path d="M41.5 40.5C41.5 40.5073 41.4844 40.8386 40.6597 41.403C39.8835 41.9342 38.6621 42.4723 37.0179 42.9482C33.7497 43.8943 29.1467 44.5 24 44.5C18.8533 44.5 14.2503 43.8943 10.9821 42.9482C9.33788 42.4723 8.11646 41.9342 7.34029 41.403C6.51557 40.8386 6.5 40.5073 6.5 40.5C6.5 40.4927 6.51557 40.1614 7.34029 39.597C8.11646 39.0658 9.33788 38.5277 10.9821 38.0518C14.2503 37.1057 18.8533 36.5 24 36.5C29.1467 36.5 33.7497 37.1057 37.0179 38.0518C38.6621 38.5277 39.8835 39.0658 40.6597 39.597C41.4844 40.1614 41.5 40.4927 41.5 40.5Z" stroke="#152C5B" stroke-width="3"/>
<path d="M32.5 11.8734C32.5 13.0183 32.1139 15.0716 31.4032 17.7099C30.7057 20.2992 29.7351 23.3121 28.652 26.305C27.569 29.2976 26.381 32.2495 25.2529 34.7179C24.6394 36.0604 24.0587 37.2257 23.5359 38.1655C21.9967 35.3191 20.057 30.794 18.3463 26.1152C17.2628 23.1517 16.2925 20.1852 15.5953 17.6351C14.885 15.0366 14.5 13.0157 14.5 11.8734C14.5 7.33452 18.4412 3.5 23.5 3.5C28.5588 3.5 32.5 7.33452 32.5 11.8734Z" fill="white" stroke="#152C5B" stroke-width="3"/>
<path d="M27.5 12C27.5 13.8017 25.8469 15.5 23.5 15.5C21.1531 15.5 19.5 13.8017 19.5 12C19.5 10.1983 21.1531 8.5 23.5 8.5C25.8469 8.5 27.5 10.1983 27.5 12Z" stroke="#39DC2B" stroke-width="3"/>
</g>
<defs>
<clipPath id="clip0_10_19">
<rect width="48" height="48" fill="white"/>
</clipPath>
</defs>
</svg>
