<svg width="48" height="48" viewBox="0 0 48 48" fill="none" xmlns="http://www.w3.org/2000/svg">
<g clip-path="url(#clip0_25_38)">
<rect width="48" height="48" fill="white"/>
<path d="M21.5979 4.8541C22.1966 3.01148 24.8034 3.01148 25.4021 4.8541L28.7761 15.2381C29.0438 16.0621 29.8117 16.6201 30.6782 16.6201L41.5966 16.6201C43.534 16.6201 44.3396 19.0993 42.7721 20.2381L33.939 26.6558C33.238 27.1651 32.9447 28.0678 33.2124 28.8918L36.5864 39.2758C37.1851 41.1185 35.0762 42.6507 33.5087 41.5119L24.6756 35.0942C23.9746 34.5849 23.0254 34.5849 22.3244 35.0942L13.4913 41.5119C11.9238 42.6507 9.81489 41.1185 10.4136 39.2758L13.7876 28.8918C14.0553 28.0678 13.762 27.1651 13.061 26.6558L4.22785 20.2381C2.66043 19.0993 3.46598 16.6201 5.40342 16.6201L16.3218 16.6201C17.1883 16.6201 17.9562 16.0621 18.2239 15.2381L21.5979 4.8541Z" fill="#FBD060"/>
</g>
<defs>
<clipPath id="clip0_25_38">
<rect width="48" height="48" fill="white"/>
</clipPath>
</defs>
</svg>
