<svg width="48" height="48" viewBox="0 0 48 48" fill="none" xmlns="http://www.w3.org/2000/svg">
<rect width="48" height="48" fill="white"/>
<path d="M18.5 4.67854C18.5 4.34432 18.8216 4.10419 19.142 4.19914L42.142 11.014C42.3544 11.0769 42.5 11.2719 42.5 11.4934V46C42.5 46.2761 42.2761 46.5 42 46.5H19C18.7239 46.5 18.5 46.2761 18.5 46V4.67854Z" stroke="#152C5B" stroke-width="3"/>
<path d="M1.5 20.453C1.5 20.2364 1.63946 20.0444 1.84546 19.9775L17.8455 14.7775C18.1685 14.6725 18.5 14.9133 18.5 15.253V46C18.5 46.2761 18.2761 46.5 18 46.5H2C1.72386 46.5 1.5 46.2761 1.5 46V20.453Z" stroke="#152C5B" stroke-width="3"/>
<circle cx="26.5" cy="31.5" r="2.5" fill="#39DC2B"/>
<circle cx="10.5" cy="27.5" r="2.5" fill="#39DC2B"/>
<circle cx="10.5" cy="37.5" r="2.5" fill="#39DC2B"/>
<circle cx="34.5" cy="31.5" r="2.5" fill="#39DC2B"/>
<circle cx="26.5" cy="22.5" r="2.5" fill="#39DC2B"/>
<circle cx="34.5" cy="22.5" r="2.5" fill="#39DC2B"/>
<path d="M37 40H31H25" stroke="#2B4CDC" stroke-width="2" stroke-linecap="round"/>
</svg>
