<svg width="48" height="48" viewBox="0 0 48 48" fill="none" xmlns="http://www.w3.org/2000/svg">
<g clip-path="url(#clip0_31_65)">
<rect width="48" height="48" fill="white"/>
<path d="M4.58322 16.9426C4.99401 16.0625 5.87735 15.5 6.84859 15.5H35.1514C36.1226 15.5 37.006 16.0625 37.4168 16.9426L39.984 22.4426C40.7577 24.1001 39.5478 26 37.7186 26H4.28136C2.45222 26 1.24234 24.1001 2.01599 22.4426L4.58322 16.9426Z" stroke="#152C5B" stroke-width="3"/>
<path d="M29.5 28.5C29.5 27.3954 30.3954 26.5 31.5 26.5C32.6046 26.5 33.5 27.3954 33.5 28.5V38.5C33.5 39.6046 32.6046 40.5 31.5 40.5C30.3954 40.5 29.5 39.6046 29.5 38.5V28.5Z" stroke="#152C5B" stroke-width="3"/>
<path d="M8.5 28.5C8.5 27.3954 9.39543 26.5 10.5 26.5C11.6046 26.5 12.5 27.3954 12.5 28.5V33.5V38.5C12.5 39.6046 11.6046 40.5 10.5 40.5C9.39543 40.5 8.5 39.6046 8.5 38.5V28.5Z" stroke="#152C5B" stroke-width="3"/>
<path d="M14 14L14 9" stroke="#152C5B" stroke-width="3"/>
<mask id="path-5-inside-1_31_65" fill="white">
<path d="M10 3C10 1.89543 10.8954 1 12 1H16C17.1046 1 18 1.89543 18 3V7C18 9.20914 16.2091 11 14 11C11.7909 11 10 9.20914 10 7V3Z"/>
</mask>
<path d="M10 3C10 1.89543 10.8954 1 12 1H16C17.1046 1 18 1.89543 18 3V7C18 9.20914 16.2091 11 14 11C11.7909 11 10 9.20914 10 7V3Z" stroke="#39DC2B" stroke-width="6" mask="url(#path-5-inside-1_31_65)"/>
<path d="M28 14L28 9" stroke="#152C5B" stroke-width="3"/>
<mask id="path-7-inside-2_31_65" fill="white">
<path d="M24 3C24 1.89543 24.8954 1 26 1H30C31.1046 1 32 1.89543 32 3V7C32 9.20914 30.2091 11 28 11C25.7909 11 24 9.20914 24 7V3Z"/>
</mask>
<path d="M24 3C24 1.89543 24.8954 1 26 1H30C31.1046 1 32 1.89543 32 3V7C32 9.20914 30.2091 11 28 11C25.7909 11 24 9.20914 24 7V3Z" stroke="#39DC2B" stroke-width="6" mask="url(#path-7-inside-2_31_65)"/>
</g>
<defs>
<clipPath id="clip0_31_65">
<rect width="48" height="48" fill="white"/>
</clipPath>
</defs>
</svg>
