<svg width="48" height="48" viewBox="0 0 48 48" fill="none" xmlns="http://www.w3.org/2000/svg">
<rect width="48" height="48" fill="white"/>
<path d="M30.9665 29.5C29.1108 27.945 26.6644 27 23.9832 27C21.3021 27 18.8556 27.945 17 29.5" stroke="#152C5B" stroke-width="3" stroke-linecap="round" stroke-linejoin="round"/>
<path d="M38 24C34.2798 20.8899 29.3752 19 24 19C18.6248 19 13.7202 20.8899 10 24" stroke="#152C5B" stroke-width="3" stroke-linecap="round" stroke-linejoin="round"/>
<path d="M43 17C37.8183 13.2679 30.9869 11 23.5 11C16.0131 11 9.18167 13.2679 4 17" stroke="#152C5B" stroke-width="3" stroke-linecap="round" stroke-linejoin="round"/>
<path d="M28.5 37C28.5 38.8017 26.8469 40.5 24.5 40.5C22.1531 40.5 20.5 38.8017 20.5 37C20.5 35.1983 22.1531 33.5 24.5 33.5C26.8469 33.5 28.5 35.1983 28.5 37Z" stroke="#39DC2B" stroke-width="3"/>
</svg>
